<?xml version="1.0" encoding="utf-8"?><svg width="24" height="24" fill="none" xmlns="http://www.w3.org/2000/svg" viewBox="0 0 24 24"><path d="M9.198 23.715a.756.756 0 01-.539-1.286l12.6-12.801c1.637-1.664 1.644-4.365.014-6.02l-.567-.578a4.085 4.085 0 00-2.932-1.232 4.128 4.128 0 00-2.96 1.248L2.292 15.632c-1.041 1.057-1.045 2.779-.007 3.834l.392.398a2.841 2.841 0 002.016.837c.707 0 1.357-.264 1.829-.744l11.24-11.421c.424-.43.427-1.128.006-1.555l-.21-.213a1.036 1.036 0 00-.742-.313c-.284 0-.551.113-.754.319L5.672 17.33a.756.756 0 01-1.077-1.06l10.39-10.558a2.552 2.552 0 011.83-.77c.69 0 1.336.271 1.821.764l.21.213a2.632 2.632 0 01-.006 3.676L7.6 21.018c-.759.77-1.791 1.194-2.907 1.194-1.16 0-2.288-.469-3.093-1.287l-.393-.399c-1.613-1.64-1.609-4.312.01-5.958L13.74 1.983A5.625 5.625 0 0117.774.286c1.517 0 2.94.598 4.01 1.684l.567.577c2.205 2.24 2.198 5.892-.015 8.141l-12.599 12.8a.754.754 0 01-.539.227z" fill="#3C3C3C"/></svg>