<?xml version="1.0" encoding="utf-8"?><svg width="34" height="34" fill="none" xmlns="http://www.w3.org/2000/svg" viewBox="0 0 34 34"><g clip-path="url(#bclip0)"><path d="M32.13 1.87C30.882.624 29.38 0 27.624 0H6.375C4.619 0 3.117.624 1.87 1.87.624 3.117 0 4.62 0 6.375v21.25c0 1.756.624 3.258 1.87 4.505C3.117 33.376 4.62 34 6.375 34h21.25c1.756 0 3.258-.623 4.504-1.87 1.247-1.248 1.87-2.75 1.87-4.505V6.375c0-1.756-.623-3.258-1.87-4.505zM10.36 28.466H5.245V13.104h5.113v15.362zM9.894 10.26c-.531.509-1.232.764-2.103.764h-.023c-.84 0-1.523-.255-2.047-.764-.524-.51-.786-1.14-.786-1.893 0-.767.27-1.402.808-1.904.539-.501 1.236-.752 2.092-.752.856 0 1.542.25 2.058.752.517.502.783 1.137.797 1.904 0 .753-.265 1.383-.796 1.893zm18.859 18.206H23.64v-8.212c0-2.317-.855-3.475-2.567-3.475-.65 0-1.195.18-1.638.542-.443.361-.775.8-.996 1.317-.104.266-.155.679-.155 1.24v8.588H13.17c.044-9.267.044-14.388 0-15.362h5.113v2.169c1.075-1.681 2.602-2.524 4.582-2.524 1.77 0 3.195.583 4.272 1.75 1.078 1.165 1.616 2.884 1.616 5.156v8.81z" fill="#000"/></g><defs><clipPath id="bclip0"><path fill="#fff" d="M0 0h34v34H0z"/></clipPath></defs></svg>