<?xml version="1.0" encoding="utf-8"?><svg width="37" height="38" fill="none" xmlns="http://www.w3.org/2000/svg" viewBox="0 0 37 38"><path fill-rule="evenodd" clip-rule="evenodd" d="M36.984 37.394c-.333.066-5.7.056-5.92-.007.142-.226.35-.385.53-.567.176-.18.367-.345.533-.498V33.71l-2.299-2.298 2.989-2.907v-.977c-.65-.65-1.317-1.32-1.986-1.988v-4.235l-2.87-2.868v-.604l-1.253-1.256v-1.808l.527-.547v-1.456l-1.88-1.89c.108-.144.235-.087.344-.096.116-.009.233-.002.354-.002l.55-.53h.248c.214.116.214.116.562.095.118-.11.249-.231.375-.35h.416l.272.234c.312 0 .645.008.977-.004.111-.004.22-.07.332-.086.115-.016.234-.004.401-.004l.454.536.434.027.36.33.245.012.33-.299h.27l.064.188c.128.102.324-.01.44.183l.044.224.591.046.075.212h.44c.253-.148.255-.3.663.066l.468.252.273-.108.236.18h.255l.541-.518h.61c.007.142.02.265.02.388v25.11c0 .141-.01.283-.015.432z" fill="#484848"/><mask id="da" maskUnits="userSpaceOnUse" x="0" y="0" width="14" height="20"><path d="M0 .326h13.498V19.78H0V.326z" fill="#fff"/></mask><g mask="url(#da)"><path fill-rule="evenodd" clip-rule="evenodd" d="M13.496 19.297c-.175.012-.218.187-.337.28-.17.024-.219-.16-.38-.237h-.453l-.168.154-.044.254-.142.033c-.127-.214.077-.294.153-.436v-.29c-.167-.135-.349-.043-.548-.105l-.833-.837-.37-.043-.042-.387-.377-.37c-.15-.024-.29-.043-.427-.072-.127-.027-.252-.067-.404-.108l-.05-.3.028-.028c-.088-.087-.177-.173-.249-.242l-.405-.024-.413-.403h-.702l-.453.44-.445-.428h-.578l-.054-.652-.43-.05-.208-.251c-.01-.103-.02-.226-.032-.375l-.499-.031c-.228-.1-.142-.314-.185-.492-.022-.025-.048-.061-.08-.093l-1.279-1.29-.265-.08-.53-.59-.268-.053-.295-.281-.231-.036-.189-.154-.335-.019-.335-.302H.057C0 11.156-.021 7.243.026 6.499c.11.014.151.11.22.173l.019.354c.319.323.651.662.985.998.328.33.658.66.95.951.072.178-.024.35.168.457.166-.168.405-.274.42-.582-.065-.072-.128-.146-.197-.216l-.774-.785c-.119-.121-.231-.25-.433-.272l-.044-.351-.947-.962v-.486l-.14-.222-.026-.295-.204-.242V.38C.038.363.043.356.05.35.057.345.065.338.072.337.108.332.143.326.178.326c1.73 0 3.459 0 5.188.002.026 0 .052.011.1.023.045.27.016.549.021.825.005.28.002.56.002.839v.844l5.894 5.968.024.464c.148.157.3.319.469.496v3.13l.671.7v.545l-.309.35v2.879l1.019 1.043v.484c.05.15.269.19.238.379h.001z" fill="#484848"/></g><path fill-rule="evenodd" clip-rule="evenodd" d="M18.488 19.987l.309-.04c.083-.074.177-.157.265-.233l.378-.058c.092.389.422.614.683.893.142.151.28.307.403.445h.529c.21.16.435.17.69.094l.02-.243-.313-.306h-.635l-.79-.808-.073-.248c.068-.082.165-.045.25-.05.081-.006.162-.002.234-.002.164-.109.284-.22.183-.46l-.816-.023c-.021-.917.005-1.816-.014-2.74l-.787-.714v-2.35l.412-.393h.613l1.89-1.886v-.829c.177-.094.296-.016.42.083h.625l.604.654.016.362.184.164c.21 0 .425.035.622-.01.21-.048.406.08.622-.01l.076-.186.263-.107 1.883 1.88v1.28l-.536.557-.016 1.757c-.128.008-.232.02-.336.02-.822.003-1.644.002-2.465.002h-.348l-1.64 1.634h-.657l-.369.377V19.6l1.036.973v.76l1.235 1.239v1.067l4.357 4.357v1.467l2.076 2.073.272.015 2.292 2.29v2.377l-1.25 1.222h-4.05l-2.446-2.444h-2.296c-1.224-1.222-2.445-2.444-3.667-3.666l.025-.059h.794l1.472-1.469 1.45 1.455-.055.445.255.282.04.291.295.052.59.571.318-.267h.428l.069-.292.356-.128.27.331v.78l.29.32.036.37.361.039.415.39h.845l.237.176h.261l.112-.178c.04.005.08 0 .107.017.105.066.212.096.35.045l.069-.248.265-.274c.323.027.642-.084.92.095h.43l.028-.218c-.1-.235-.292-.19-.468-.215l-.203-.142H28.5l-.171.109c-.345.072-.68-.079-.988.134-.087-.213-.016-.415-.064-.633l-.153-.202v-.39l-.205-.191-.782-.117c-.236.19-.487.126-.74.111l-.065-.279-.229-.244c-.047-.152-.091-.268-.12-.388a1.205 1.205 0 01-.025-.267c-.002-.54-.001-1.082-.001-1.633l-.323-.353v-1.198a456.87 456.87 0 00-.347-.372v-1.749l-.541-.56-.04-.326-.866-.825c-.045-.152.078-.336-.101-.445-.198.067-.298.249-.43.363-.067.102.001.245-.138.292-.21-.129-.878-.808-.982-1.01l.259-.014.296.27c.141.005.3.075.415-.13l-.396-.42-.078-.404.089-.042.158.131.41-.027v-.746l-.33-.016-.31.278h-1.42l-.63-.676-.017-.236c-.069-.131-.165-.18-.318-.148l-.11.122-.438-.164c-.156-.084-.138-.218-.09-.376l.238-.023.21.151c.191.023.386.03.604-.015l.016-.257-.447-.26h-.582l.104-.074c.037-.122-.023-.195-.127-.233-.066-.023-.14-.025-.211-.037l.005.008zM24.765 10.028v-.591l1.171-1.2V6.28l1.139-1.103v-.355V.328c0-.106.014-.212.021-.328h9.873c.01.118.03.232.03.345.002.953 0 1.906 0 2.86v5.229c0 .124-.012.249-.02.397h-.607l-.224.17-.24.046-.07.2-.26.319-.726.099-.228-.178h-.356l-.396-.366h-.261l-.648.527.04.037-.214.353h-.337l-.527-.181c-.114-.265-.025-.518.037-.813l-.218-.19c-.184-.031-.342-.032-.46.093h-.642l-.138.148c-.24.06-.497-.066-.72.135-.022-.051-.04-.088-.054-.126-.012-.033-.02-.068-.032-.112l-.143-.061-.102-.196h-.562l-.194-.155c-.094-.05-.226 0-.297-.146.203-.177.452-.248.717-.3.013-.034.029-.065.038-.098.009-.035.011-.07.016-.102l.401-.243v-.344L28.73 6.5c-.42.006-.872-.042-1.342.036l-.089-.262h-.31l-.036.562-.35.058c-.05.25-.025.292.259.435.003.037.01.081.01.125 0 .045-.006.09-.01.163L25.703 8.76l-.033.298-.646.673c-.053.132.054.31-.127.41l-.132-.114z" fill="#484848"/><path fill-rule="evenodd" clip-rule="evenodd" d="M13.007 23.695l-.314-.35v-1.159l-.202-.253v-.99l.178-.197h.731l.625-.633-.21-.279v-.74l.016-.002v.723l.19.207h.618l.219.167h1.394l.28.32-.56.6v1.708h-.666c-.45.46-.862.884-1.291 1.324v1.914l1.225 1.257v.884l6.756 6.894h2.129l2.261 2.31c-.034.01-.078.03-.125.035-.07.007-.142.003-.213.003H15.775c-.13 0-.262-.012-.416-.019-.012-.127-.03-.232-.03-.337-.004-.463-.002-.926-.002-1.392l-.464-.493v-.793l-.362-.395v-.416l.165-.213c.015-.233.052-.47-.07-.689-.106-.188-.112-.396-.114-.645l-.369-.353h-1.075l-.525.442.022.188c-.035-.003-.077 0-.08-.008-.024-.084-.041-.17-.063-.267l-.296-.058c-.027-.08-.077-.176-.093-.277-.096-.621-.052-1.248-.059-1.872 0-.054.008-.107.013-.173l.305-.059c.005-.103.013-.2.014-.298v-1.253c0-.122.004-.239.144-.323l.3-.023.492-.548v-1.436l-.205-.245v-1.788zM13.79 17.84c-.07.143-.07.143-.27.208l-1.05-1.056v-2.7l.312-.345v-.697l-.678-.581.028-.045c-.006-.116-.017-.232-.017-.349v-2.87l-.47-.39v-.464l3.263-3.264V.044c.231-.047 8.203-.062 8.61-.017.007.098.017.202.02.306.004.108.001.216.001.326l-1.437 1.414v4.253l-.37.391v1.226l.808.795h.882c.43.369 1.38 1.348 1.49 1.54l-.294.06-.179-.133-.297-.031c-.03-.083-.058-.165-.073-.21l-.768-.78c-.259-.022-.259-.022-.42.305l-.086-.214h-.536l-.108-.219c-.117-.014-.239-.07-.344.047l.005-.006c-.081-.036-.173-.058-.242-.11-.075-.056-.13-.139-.192-.21.064-.137.23-.208.143-.385l-.844-.959v-.656c.084-.149.3-.246.17-.483l-.286-.057-.063-.212c-.122-.034-.272-.038-.332-.25v-.584l.137-.073v-.385l-.527-.398-.231-.02-.197-.158h-.328l-.062.205-.196.107c.005.07.01.146.014.232l.296.044.044.247c.11.223.332.112.505.192.105.301-.027.638.084.947l.308.165v1.021c.082.177.14.305.2.432l-.054.041.648.584-.01.22.28.319c-.076.165-.076.165-.205.183-.132-.16-.246-.317-.38-.455-.364-.376-.736-.744-1.106-1.115-.064-.063-.13-.123-.208-.197h-.85L17.278 6.22h-.467l-.355-.327-.295.015.02.277-1.104 1.11h-.155l-.048-.236a1.474 1.474 0 00-.794-.001c-.007.072-.003.154-.025.23-.018.064-.066.12-.102.182h-.63c-.11.074-.207.138-.179.3l.166.085.16.3v1.976l-.221.27v.656l-.456.055c-.106.253-.044.373.203.387.17.01.342.002.521.002l.122.174.303.041.098.207.157.063c.013.017.032.03.033.045.014.172.143.265.248.375.072.077.175.143.11.272-.117.101-.2-.02-.321-.051l-.41.377h-.698l-.02.38c.073.2.227.216.397.264l-.181.152v.235l.17.215-.012.268-.416.05v.553l.214.226.24.044c.139.16.354.26.365.522.28.019.397.265.605.418l.24.036c.02.09.04.183.06.282l.191.259-.113.167-.515.024.187.356c-.27.118-.332-.102-.468-.21l.137-.21v-.26l-.644-.596h-.53l-.032.428.316.364-.025.029-.422-.239-.188.144.4.42.396.055.041.443c.09.078.168.052.245.024l-.005-.007z" fill="#484848"/><path fill-rule="evenodd" clip-rule="evenodd" d="M14.715 5.454l-3.167 3.197-5.799-5.864V.34c.218-.046 8.629-.056 8.932-.014.058.215.083 4.24.034 5.13zM26.086 24.886l-1.849-1.838v-.685l-1.641-1.627h-.626l-1.038-1.039v-.958l.265-.265h.676l1.596-1.619h3.178l1.284 1.28v.556l2.878 2.875v3.29c-.225.053-4.212.074-4.723.03zM22.17 2.407l1.417-1.38.038-.729h3.318c.01.053.032.111.032.17.002 1.572.001 3.145 0 4.718 0 .035-.007.07-.015.149L25.854 6.4v1.942l-1.177 1.187v.465c-.26-.196-.44-.414-.64-.608-.205-.198-.405-.401-.612-.607h-.907l-.701-.742V6.96l.353-.376V2.407z" fill="#484848"/><path fill-rule="evenodd" clip-rule="evenodd" d="M22.53 20.734l1.49 1.507v.7l1.913 1.93h4.68v.794c.661.673 1.314 1.336 1.965 1.996v.87l-2.982 2.942h-.184l-1.943-1.969v-1.466l-4.306-4.359v-1.082l-1.199-1.22v-.627c.112-.006.206-.013.3-.015.098-.003.196-.001.265-.001zM15.478 28.327v-.87l.578-.591v-.708l.451-.464v-2.156l-.295-.332v-1.841c.108-.116.2-.247.365-.333l.123.838.15.204.037.27.204.076.185.348c-.048.026-.103.054-.17.088v.318l.308.321v.23c-.04 0-.08.01-.088-.001-.048-.072-.088-.15-.148-.256h-.267c-.097.169-.002.286.09.413l-.324.345v1.212c.088.027.165.05.257.08l-.047.175.137.386c.022.12.18.182.116.342-.124.201-.287.046-.463.034l-.177.117v.367l.288.055.304.557h.538c.088.144.072.27.025.41-.149-.005-.247-.2-.43-.066l-.027.205.184.194h.93l.313.279h.44l.795.848.034-.027.275.057.062.3.406.029c-.097.181-.933 1.038-1.362 1.394h-.935l-2.862-2.847zM21.67 9.994v.85l-1.698 1.758h-.607l-.491.515v2.397l.741.687c.027.95.012 1.841.01 2.732l-.058.01c-.016-.04-.045-.082-.046-.123-.005-.19-.003-.38-.003-.573l-.21-.27v-1.514l-.222-.178h-.144l-.389-.384-.326-.024-.102-.253-.322-.022-.09.197-.282.151c-.289-.241-.527-.556-.824-.82l-.391-.018-.246-.306.195-.124c.045-.218-.11-.29-.238-.387v-.286c-.022-.17-.19-.207-.147-.362l.356.125.04.235.16.157h.322l.03-.265c-.057-.185-.227-.236-.239-.415.151-.08.314-.017.46-.058.146-.041.286-.106.458-.117l.263-.275v-.53l-.188-.24.067-.443c.096.037.192.068.282.109.086.04.167.09.282.154h.68l.314-.3h.747c.11-.133.227-.277.344-.421l.03.025.037-.25.128-.11.031-.223.774-.811h.511z" fill="#484848"/><path fill-rule="evenodd" clip-rule="evenodd" d="M16.362 23.55v2.048l-.433.493v.72l-.492.485c-.159-.101-.942-.914-1.138-1.184v-1.747l1.183-1.245h.533l.347.43zM19.457 19.259c-.098.024-.195.066-.293.069-.342.009-.684 0-1.026.005-.1.001-.2.022-.302.034l.008.007c.097-.024.193-.066.29-.069.332-.009.664 0 .995-.006.11-.002.22-.026.33-.04h-.002zM25.355 10.72l-.295-.279.265.298.03-.018zM22.052 9.398v.297l-.036-.001.045-.297-.01.001zM19.685 19.336c-.009-.03-.018-.06-.006-.022.006-.038 0-.009-.004.02l.01.002z" fill="#484848"/><path fill-rule="evenodd" clip-rule="evenodd" d="M19.746 19.31l-.288.01h.002l.293.003-.007-.013zM13.44 19.19c.029-.016.059-.03.088-.045l.01.021-.097.023h-.002z" fill="#484848"/><path fill-rule="evenodd" clip-rule="evenodd" d="M19.72 19.268l-.092.084.005.012.098-.094-.01-.002zM17.948 19.285l-.085.054.008.009.087-.056-.01-.008zM17.89 19.665a20.4 20.4 0 01.049-.092l-.009-.009-.049.096.009.005z" fill="#484848"/><path fill-rule="evenodd" clip-rule="evenodd" d="M17.87 19.644l.09-.054-.01-.005-.089.05.008.01z" fill="#484848"/><path fill-rule="evenodd" clip-rule="evenodd" d="M17.937 19.57l-.062.081.01.008.06-.081-.008-.008zM17.65 19.58l-.079.06.008.01.08-.063-.009-.008z" fill="#484848"/><path fill-rule="evenodd" clip-rule="evenodd" d="M17.592 19.662l.055-.086-.008-.009-.056.088.01.007zM17.578 19.946l.084-.06-.009-.006-.084.057.009.009z" fill="#484848"/><path fill-rule="evenodd" clip-rule="evenodd" d="M17.644 19.87l-.066.077.01.008.065-.076-.009-.009z" fill="#484848"/><path fill-rule="evenodd" clip-rule="evenodd" d="M17.648 19.875l-.074.067.008.008.075-.066-.009-.009zM17.296 19.959l.06-.083-.009-.009-.06.084.009.008z" fill="#484848"/><path fill-rule="evenodd" clip-rule="evenodd" d="M17.36 19.882l-.088.053.008.009.09-.055-.01-.007zM17.344 20.163l-.055.089.01.007.053-.087-.008-.009zM18.636 20.277l.031-.12-.008-.012-.03.125.006.007z" fill="#484848"/><path fill-rule="evenodd" clip-rule="evenodd" d="M17.359 20.18l-.086.054.008.009.087-.056-.01-.008zM18.349 20.208l.007.006-.007-.006z" fill="#484848"/><path fill-rule="evenodd" clip-rule="evenodd" d="M17.344 20.164l-.055.087.009.007.054-.085-.008-.009zM21.711 9.45l.058.051.006-.009-.054-.05-.01.007zM17.002 20.241l.057-.05-.008-.01-.058.052.01.008zM17.058 20.322l-.073.068.008.008.074-.068-.009-.008z" fill="#484848"/><path fill-rule="evenodd" clip-rule="evenodd" d="M17 20.405l.061-.081-.008-.009c-.02.028-.042.055-.063.082l.01.008z" fill="#484848"/><path fill-rule="evenodd" clip-rule="evenodd" d="M17.064 20.328l-.086.056.008.008.088-.056-.01-.008zM16.902 20.313l-.055.088.009.006.054-.085-.008-.009zM16.984 20.259l.091-.088-.008-.007-.09.085.007.01zM16.863 20.695l.042-.064-.008-.01-.045.075.01-.001z" fill="#484848"/><path fill-rule="evenodd" clip-rule="evenodd" d="M16.88 20.663l-.014-.009.024.008h-.01zM21.8 9.51l-.108-.078-.007.009.107.07.009-.001zM21.79 9.215l-.088-.09-.007.008.086.09.01-.008zM13.772 18.127l.027-.009h-.034l.007.01z" fill="#484848"/><path fill-rule="evenodd" clip-rule="evenodd" d="M16.836 20.706l.092-.088-.009-.007-.09.086.007.01z" fill="#484848"/></svg>