<?xml version="1.0" encoding="utf-8"?><svg width="394" height="38" fill="none" xmlns="http://www.w3.org/2000/svg" viewBox="0 0 394 38"><path fill-rule="evenodd" clip-rule="evenodd" d="M37.538 37.954c-.338.067-5.786.057-6.01-.007.146-.23.357-.39.538-.575.18-.182.374-.35.542-.506v-2.65l-2.333-2.333 3.034-2.951v-.991l-2.015-2.019v-4.298l-2.914-2.911V18.1l-1.272-1.275V14.99l.535-.557v-1.477l-1.909-1.918c.11-.147.24-.089.35-.098.118-.008.237-.001.359-.001l.558-.539h.252c.218.118.218.118.571.097l.38-.355h.423l.276.237c.316 0 .654.008.991-.004.113-.004.223-.072.337-.087.117-.016.238-.004.407-.004l.461.543.44.028.367.335.248.012.334-.303h.275l.065.19c.13.104.328-.01.446.187l.044.226.601.048.076.215h.447c.257-.15.258-.304.673.067l.474.255.277-.109.24.183h.258l.55-.526h.619c.008.144.02.268.02.393l.001 7.38v18.106c0 .144-.01.288-.016.44z" fill="#484848"/><mask id="ba" maskUnits="userSpaceOnUse" x="0" y="0" width="14" height="21"><path d="M0 .33h13.7v19.748H0V.33z" fill="#fff"/></mask><g mask="url(#ba)"><path fill-rule="evenodd" clip-rule="evenodd" d="M13.698 19.586c-.178.013-.222.19-.342.285-.173.024-.222-.162-.386-.24h-.459l-.171.155-.044.258-.145.034c-.128-.218.078-.3.155-.444v-.293c-.17-.137-.354-.044-.556-.107l-.845-.85-.377-.043-.04-.393-.384-.375c-.152-.025-.294-.044-.433-.074-.13-.027-.256-.067-.41-.109l-.051-.304.029-.03-.253-.245-.411-.024-.42-.41h-.712l-.46.448-.452-.434h-.586l-.056-.663-.435-.05-.212-.256-.033-.38-.506-.032c-.231-.102-.144-.318-.188-.498-.022-.026-.049-.063-.08-.095l-1.299-1.31-.27-.081-.537-.598-.272-.054-.299-.286-.235-.036-.191-.156-.34-.02-.34-.306H.057C0 11.323-.022 7.35.026 6.597c.112.014.154.111.224.175l.019.36c.323.328.66.67 1 1.012.333.336.668.67.963.966.074.18-.024.356.171.464.168-.17.411-.279.427-.591-.066-.073-.13-.149-.2-.22-.261-.266-.525-.53-.786-.796-.12-.123-.234-.255-.439-.276l-.046-.357-.96-.976v-.493L.256 5.64l-.025-.3-.208-.245V.385C.038.368.044.36.05.354.058.35.065.344.073.343.11.337.145.331.181.331c1.755 0 3.51 0 5.266.002.026 0 .052.012.101.023.046.274.016.557.021.838.006.284.002.567.002.851v.857l5.982 6.057.024.472.476.503v3.176l.682.711v.553l-.314.356v2.921l1.034 1.059v.491c.052.152.273.193.242.385h.001z" fill="#484848"/></g><path fill-rule="evenodd" clip-rule="evenodd" d="M18.765 20.287l.313-.042c.085-.075.18-.159.27-.236l.383-.058c.094.394.429.622.694.905.144.154.283.313.409.452h.536c.214.163.442.173.7.096l.022-.247c-.107-.104-.21-.205-.32-.31h-.643l-.803-.82-.073-.252c.069-.083.167-.046.254-.052.082-.005.165 0 .237 0 .166-.112.288-.225.186-.467l-.828-.024c-.022-.931.004-1.844-.015-2.78l-.799-.726v-2.385l.418-.399h.623l1.919-1.915v-.84c.179-.096.3-.017.427.084h.633l.613.664.016.367.187.166c.214 0 .432.036.631-.01.213-.05.412.081.631-.01l.078-.189.267-.109 1.911 1.908v1.3l-.544.565-.016 1.783c-.13.009-.236.021-.342.022H23.886l-1.664 1.659h-.668l-.374.383v1.123l1.051.987v.772l1.254 1.257v1.083l4.422 4.422v1.489l2.107 2.105.276.014 2.327 2.324v2.413L31.347 38h-4.11c-.824-.822-1.653-1.65-2.482-2.48h-2.331l-3.722-3.72.025-.06h.807l1.493-1.492 1.472 1.477-.056.452.26.286.04.295.299.053.6.58.322-.271h.434l.07-.297.361-.13.274.337v.792l.294.323.037.376.367.04.42.396h.859l.24.179h.265l.114-.182c.04.006.081.001.109.018.106.067.215.098.354.046l.07-.252.27-.278c.327.027.652-.086.933.096h.437l.028-.22c-.1-.24-.296-.194-.475-.22L29.22 34h-.294l-.174.11c-.35.074-.69-.08-1.002.136-.089-.215-.017-.42-.065-.642l-.156-.205v-.397c-.066-.06-.151-.14-.207-.193l-.795-.119c-.239.193-.494.128-.751.113l-.065-.283-.233-.248c-.048-.154-.093-.272-.12-.394a1.224 1.224 0 01-.027-.27c-.003-.55-.002-1.099-.002-1.658l-.327-.358v-1.216l-.352-.378v-1.775l-.55-.569-.04-.33-.879-.838c-.046-.154.08-.34-.102-.452-.202.069-.303.253-.437.369-.068.103.001.249-.14.297-.213-.131-.891-.82-.997-1.025l.263-.015.301.275c.143.004.304.075.421-.133l-.402-.426-.079-.41.09-.043.16.133.417-.027v-.758l-.336-.016-.315.283h-1.44l-.64-.687-.017-.24c-.07-.132-.167-.181-.323-.149l-.112.123-.444-.166c-.159-.085-.14-.221-.092-.382l.242-.023.214.154c.193.022.391.03.613-.016l.016-.26-.454-.264h-.59l.105-.076c.037-.124-.023-.198-.129-.236-.067-.024-.143-.026-.215-.038l.006.009zM25.136 10.178v-.6l1.189-1.217V6.374l1.155-1.12v-.36V.333c0-.108.014-.215.022-.333h10.021c.01.12.03.235.03.35.002.967 0 1.935 0 2.902V8.56c0 .127-.012.253-.02.403h-.617l-.226.173-.245.046-.07.203-.264.324-.737.1-.232-.18h-.36l-.403-.371h-.265l-.658.535.04.037-.216.358h-.342l-.535-.184c-.116-.269-.026-.525.038-.824l-.222-.193c-.186-.032-.347-.033-.467.094h-.651l-.14.15c-.243.06-.504-.066-.73.137-.023-.052-.042-.089-.056-.127-.012-.034-.02-.07-.033-.114l-.145-.063c-.032-.062-.065-.126-.104-.198h-.57l-.197-.158c-.095-.05-.229.001-.3-.147.205-.18.458-.253.727-.306.013-.033.03-.065.038-.099.01-.035.012-.071.017-.103l.407-.247v-.349l-.856-.86c-.425.006-.885-.043-1.362.036a190.11 190.11 0 00-.09-.266h-.315l-.037.57-.355.06c-.05.253-.025.296.263.44.003.038.01.083.01.128 0 .046-.005.091-.01.165l-1.175 1.162-.034.302-.655.684c-.054.134.054.315-.129.417-.045-.04-.09-.08-.134-.117z" fill="#484848"/><path fill-rule="evenodd" clip-rule="evenodd" d="M13.202 24.05l-.318-.356v-1.175l-.206-.257v-1.005l.18-.2h.743l.634-.643-.213-.283v-.751l.016-.002v.734l.194.21h.627l.222.17h1.414l.285.324-.57.609v1.734h-.675l-1.31 1.344v1.942l1.243 1.276v.897l6.858 6.998h2.16l2.296 2.343c-.035.01-.08.032-.127.037-.072.007-.145.003-.217.003H16.012c-.133-.001-.266-.012-.423-.02-.012-.128-.03-.235-.03-.341-.004-.47-.002-.94-.002-1.414l-.471-.5v-.805l-.368-.4v-.423l.168-.216c.015-.237.053-.477-.072-.7-.107-.19-.113-.401-.115-.654l-.374-.359h-1.091l-.533.45.022.19c-.036-.003-.079 0-.081-.009-.025-.085-.042-.172-.064-.27l-.3-.059c-.029-.081-.079-.178-.095-.281-.097-.63-.053-1.267-.06-1.9 0-.055.008-.108.013-.175l.31-.06c.005-.105.013-.204.014-.303v-1.272c0-.124.004-.242.146-.328l.304-.023.5-.556v-1.458l-.208-.249V24.05zM13.997 18.108c-.071.144-.071.144-.274.21l-1.066-1.071v-2.741l.316-.35v-.708l-.688-.59.029-.045c-.006-.118-.017-.236-.017-.354-.002-.835-.001-1.67-.001-2.506v-.406l-.476-.397v-.471l3.311-3.313V.045c.235-.048 8.326-.063 8.74-.018.007.1.017.205.02.31.004.11 0 .22 0 .332l-1.458 1.435V6.42l-.375.398v1.244l.82.807h.895c.437.374 1.4 1.368 1.512 1.563l-.298.061-.182-.135-.302-.032-.074-.213-.779-.79c-.263-.024-.263-.024-.426.308l-.087-.217h-.544l-.11-.222c-.12-.015-.243-.072-.35.048l.006-.007c-.083-.036-.175-.059-.246-.111-.076-.057-.131-.141-.195-.213.066-.14.233-.212.145-.391l-.857-.973v-.666c.086-.152.304-.25.174-.49l-.29-.058-.065-.216c-.124-.034-.276-.038-.337-.253v-.594l.14-.073v-.391l-.536-.404-.234-.02-.2-.16h-.333l-.063.207-.198.109.013.235.301.045.045.25c.112.227.337.114.512.196.106.305-.027.647.085.96l.313.169v1.036l.202.438-.054.042.657.592-.01.223.285.324c-.078.168-.078.168-.208.187-.134-.162-.25-.322-.386-.462-.37-.382-.747-.756-1.123-1.132-.064-.064-.132-.125-.21-.2h-.863l-1.068-1.125h-.473l-.361-.332-.3.015.022.282-1.121 1.126h-.157l-.049-.239a1.496 1.496 0 00-.806-.002c-.007.074-.003.157-.025.233-.019.066-.067.123-.104.186h-.64c-.11.075-.21.14-.181.304l.169.087.161.304v2.006l-.224.274v.666l-.463.056c-.107.256-.044.378.207.392.173.01.347.002.529.002l.124.177.307.042.1.21.16.064c.012.017.031.03.032.046.014.174.146.268.252.38.073.078.178.145.112.276-.12.103-.203-.02-.326-.052l-.417.383h-.708l-.02.386c.074.203.23.22.402.268l-.183.154v.238l.173.219-.013.271-.421.052v.56l.216.23.244.044c.141.163.36.265.37.53.285.02.403.269.614.424l.244.037.061.287.194.262-.115.17-.522.024.189.361c-.274.12-.337-.103-.475-.212l.14-.213v-.266l-.654-.603h-.538l-.033.434.321.37-.026.029-.428-.242-.191.146.406.425.403.056.041.45c.092.08.17.053.249.024l-.006-.007z" fill="#484848"/><path fill-rule="evenodd" clip-rule="evenodd" d="M14.935 5.536l-3.214 3.245-5.886-5.952V.344C6.057.298 14.593.287 14.901.33c.059.22.084 4.305.034 5.207zM26.477 25.259L24.6 23.393v-.695l-1.666-1.65H22.3l-1.053-1.055v-.973l.269-.27h.686l1.62-1.642h3.225l1.303 1.298v.566l2.921 2.918v3.338c-.228.054-4.275.075-4.793.03zM22.502 2.443l1.438-1.401.04-.74h3.366c.011.054.033.113.033.173.002 1.596.001 3.192 0 4.788 0 .036-.007.072-.015.152L26.24 6.496v1.97l-1.195 1.206v.471c-.264-.198-.446-.42-.65-.616-.207-.201-.41-.408-.62-.617h-.92l-.712-.752V7.065l.358-.382v-4.24z" fill="#484848"/><path fill-rule="evenodd" clip-rule="evenodd" d="M22.867 21.045l1.513 1.53v.71c.66.664 1.286 1.297 1.942 1.959h4.749v.806l1.994 2.026v.882c-.99.978-2.005 1.98-3.026 2.986h-.186l-1.973-1.998v-1.488l-4.37-4.424v-1.098l-1.217-1.24v-.635c.114-.006.21-.013.305-.016.1-.002.198 0 .269 0zM15.71 28.752v-.883l.587-.6v-.719l.457-.47v-2.19l-.3-.336v-1.869c.11-.117.204-.25.372-.338l.125.851.15.206.04.274.206.078.188.353-.172.09v.322l.312.326v.233c-.041 0-.082.01-.09-.001-.048-.073-.089-.151-.15-.26h-.27c-.1.172-.003.291.091.42l-.33.35v1.23l.262.08-.048.18.139.39c.023.122.184.186.118.348-.126.204-.291.047-.47.034l-.18.119v.373l.293.055.308.566h.546c.09.146.073.273.026.416-.151-.005-.252-.203-.438-.066l-.026.207.186.197h.945c.114.102.21.186.317.283h.447l.807.86.034-.027.28.058.062.305.413.029c-.1.184-.948 1.054-1.383 1.416H18.615l-2.905-2.89zM21.994 10.143v.863l-1.722 1.785h-.617l-.498.522v2.433l.752.697c.027.965.012 1.87.01 2.774l-.059.01c-.016-.042-.046-.083-.047-.125-.005-.193-.002-.386-.002-.582l-.214-.273v-1.538l-.225-.18h-.146l-.395-.39-.33-.025-.104-.256-.327-.022-.092.2-.285.153c-.294-.245-.536-.564-.837-.833l-.397-.018-.25-.31.198-.126c.046-.221-.111-.294-.241-.393v-.29c-.023-.173-.193-.21-.15-.368l.362.127.04.239.164.16h.326l.03-.27c-.057-.188-.23-.24-.242-.421.153-.082.319-.018.467-.06.148-.041.29-.107.464-.118l.267-.278v-.538a494.59 494.59 0 00-.19-.244l.067-.45c.098.037.195.069.287.11.087.04.169.092.285.157h.69l.32-.304h.758l.35-.428.03.025.037-.253.13-.111.031-.228.786-.823h.519z" fill="#484848"/><path fill-rule="evenodd" clip-rule="evenodd" d="M16.607 23.903v2.078l-.44.501v.73l-.499.493c-.16-.103-.956-.928-1.155-1.202V24.73l1.2-1.264h.542l.352.437zM19.748 19.547c-.1.025-.198.068-.297.07-.347.01-.694.001-1.041.005-.102.002-.204.023-.306.035l.007.007c.098-.024.196-.067.294-.07.337-.009.674 0 1.01-.006.112-.002.223-.027.334-.041zM25.734 10.881l-.299-.283.27.302.03-.019zM22.382 9.539v.302l-.036-.002.045-.301h-.009zM19.98 19.626l-.007-.023a3.187 3.187 0 00-.003.021l.01.002z" fill="#484848"/><path fill-rule="evenodd" clip-rule="evenodd" d="M20.041 19.6l-.291.01h.002l.297.002-.008-.013zM13.64 19.477l.091-.045a.981.981 0 00.009.021l-.098.024h-.001z" fill="#484848"/><path fill-rule="evenodd" clip-rule="evenodd" d="M20.016 19.557l-.094.085.005.012.1-.095-.011-.002zM18.218 19.573l-.088.056.009.009.088-.057-.01-.008zM18.158 19.96l.05-.094-.009-.009-.05.097.01.005z" fill="#484848"/><path fill-rule="evenodd" clip-rule="evenodd" d="M18.137 19.938l.091-.054-.008-.006-.091.052.008.008z" fill="#484848"/><path fill-rule="evenodd" clip-rule="evenodd" d="M18.206 19.863l-.063.083.01.008.061-.083-.008-.008zM17.915 19.873l-.08.062.008.009.081-.063-.009-.008z" fill="#484848"/><path fill-rule="evenodd" clip-rule="evenodd" d="M17.855 19.956l.057-.087-.009-.009-.056.09.008.006zM17.84 20.244l.087-.06-.01-.006-.085.058.009.008z" fill="#484848"/><path fill-rule="evenodd" clip-rule="evenodd" d="M17.909 20.168l-.068.078.01.008.066-.077-.009-.009z" fill="#484848"/><path fill-rule="evenodd" clip-rule="evenodd" d="M17.913 20.173l-.076.067.008.009.077-.067-.01-.009zM17.555 20.257l.06-.084-.008-.008-.062.085.01.007z" fill="#484848"/><path fill-rule="evenodd" clip-rule="evenodd" d="M17.62 20.18l-.089.054.008.009.09-.056-.01-.007zM17.604 20.465l-.056.09.01.008.054-.09-.008-.008zM18.914 20.58l.032-.122-.008-.01-.03.126.006.007z" fill="#484848"/><path fill-rule="evenodd" clip-rule="evenodd" d="M17.619 20.482c-.03.018-.058.037-.087.056l.008.008.088-.056-.01-.008zM18.624 20.51l.007.008-.007-.007z" fill="#484848"/><path fill-rule="evenodd" clip-rule="evenodd" d="M17.604 20.466l-.056.089.01.007.054-.087-.008-.009zM22.037 9.59l.058.053.006-.009-.055-.05-.01.007zM17.257 20.544l.057-.051-.008-.01-.058.053.009.008zM17.314 20.627l-.075.069.009.008.075-.069-.01-.008z" fill="#484848"/><path fill-rule="evenodd" clip-rule="evenodd" d="M17.255 20.711l.062-.083-.009-.008a25.97 25.97 0 01-.063.083l.01.008z" fill="#484848"/><path fill-rule="evenodd" clip-rule="evenodd" d="M17.32 20.633a33.14 33.14 0 01-.088.056l.009.009.088-.057-.01-.008zM17.155 20.618l-.055.088.008.007.055-.087-.008-.008zM17.238 20.562l.093-.089-.009-.007-.091.086.007.01zM17.115 21.005l.043-.065-.007-.01-.046.076.01-.001z" fill="#484848"/><path fill-rule="evenodd" clip-rule="evenodd" d="M17.134 20.973l-.015-.01.025.008-.01.002zM22.127 9.652l-.11-.079-.007.01.108.07h.01zM22.117 9.353l-.09-.092-.007.009.088.09.01-.007zM13.979 18.4l.028-.01h-.035l.007.01z" fill="#484848"/><path fill-rule="evenodd" clip-rule="evenodd" d="M17.088 21.017l.093-.09-.008-.007-.092.087.008.01zM56.991 14.052c0-2.428-1.02-3.642-3.062-3.642-.68 0-1.126.114-1.336.34-.098.097-.146.348-.146.752v6.459c.13.016.275.024.438.024 1.069 0 1.976-.235 2.721-.704.924-.583 1.385-1.659 1.385-3.229zm2.552-.023c0 1.56-.672 2.774-2.017 3.642-.843.547-1.912.82-3.208.82a11.82 11.82 0 01-1.871-.168v6.85c0 .37.016.604.048.7.081.226.26.362.535.41.47.065.924.097 1.36.097.18 0 .268.057.268.169 0 .16-.113.241-.34.241H48.73c-.486 0-.729-.08-.729-.241 0-.113.17-.17.51-.17.762 0 1.199-.072 1.313-.217.129-.064.202-.225.218-.483V11.425c0-.5-.138-.805-.413-.919-.162-.064-.446-.096-.85-.096H48.365c-.244 0-.365-.065-.365-.194 0-.144.227-.216.68-.216h5.347c1.846 0 3.199.322 4.058.965.972.724 1.458 1.745 1.458 3.064zM72.168 22.951c0 .055-.015.393-.044 1.013-.029.62-.043 1.214-.043 1.779v.682c-1.407-.082-4.192-.124-8.356-.124h-2.692c-.272 0-.409-.055-.409-.166 0-.074.044-.118.13-.13.043 0 .315-.018.818-.055.373-.028.6-.104.678-.229.079-.124.119-.449.119-.974V13.089c0-.4-.061-.64-.183-.715-.123-.076-.514-.115-1.174-.115-.23 0-.344-.058-.344-.175 0-.117.157-.176.473-.176h9.131c.431 0 .826-.027 1.185-.083.028.593.093 1.413.193 2.461l.087.89c.014.069.021.158.021.268 0 .138-.064.207-.194.207-.158 0-.272-.173-.344-.52-.273-1.249-.718-2.04-1.335-2.373-.46-.25-1.666-.374-3.619-.374h-1.765v6.08h.517c1.608 0 2.587-.118 2.94-.352.35-.234.591-.917.72-2.047.03-.29.108-.435.238-.435.157 0 .237.124.237.373 0 .248-.015.613-.044 1.096-.029.482-.043.847-.043 1.096 0 1.475.023 2.488.07 3.04.01.138.017.255.017.351 0 .18-.08.269-.237.269-.1 0-.168-.059-.203-.176-.036-.117-.097-.5-.182-1.148-.115-.813-.465-1.316-1.05-1.51-.258-.082-.93-.123-2.015-.123H64.5v6.928c3.158 0 5.01-.061 5.556-.184.948-.205 1.486-1.076 1.615-2.615.029-.34.122-.51.28-.51.143 0 .216.145.216.434zM86.958 12.033c0 .138-.18.2-.541.186h-.866c-.23 0-.367.039-.41.114-.044.076-.066.307-.066.694v11.928c0 .732-.007 1.16-.021 1.284-.015.124-.058.186-.13.186-.086 0-.186-.076-.302-.229l-2.765-3.881a509.57 509.57 0 01-5.85-8.48V25.45c.014.18.124.295.328.343.204.049.692.08 1.465.094.19 0 .285.056.285.166 0 .138-.188.207-.563.207-.13 0-.541-.02-1.234-.062a11.51 11.51 0 00-.67-.02c.014 0-.113.013-.38.04-.267.029-.674.042-1.222.042h-.217c-.332 0-.498-.062-.498-.187 0-.124.144-.186.433-.186.851-.014 1.346-.066 1.483-.156s.205-.384.205-.883v-10.24c0-1.148-.245-1.868-.736-2.16-.23-.138-.642-.207-1.233-.207-.375 0-.563-.073-.563-.219 0-.13.108-.196.325-.196.288 0 .656.014 1.104.042.447.028.685.041.714.041.043 0 .245-.007.606-.02a15 15 0 001.385-.063l7.467 10.68v-9.228c0-.428-.008-.688-.022-.778-.014-.09-.072-.159-.173-.207-.1-.049-.448-.073-1.039-.073-.52 0-.779-.062-.779-.186 0-.138.173-.208.52-.208h3.484c.317 0 .476.07.476.208zM93.81 26.247c0 .119-.088.178-.265.178h-.22c-.09-.042-1.092-.063-3.008-.063-.369 0-.737.014-1.106.042a13.26 13.26 0 01-.885.021c-.191 0-.287-.063-.287-.189 0-.112.191-.175.575-.189.59-.014.936-.08 1.04-.2.102-.12.154-.523.154-1.212V13.553c0-.688-.037-1.075-.112-1.159-.09-.14-.5-.224-1.232-.253-.283-.012-.425-.061-.425-.148 0-.11.09-.167.267-.167h3.009c.222 0 .653.008 1.292.021l.847-.02c.238 0 .357.059.357.178 0 .107-.329.173-.986.2-.373.013-.6.076-.683.188-.082.113-.122.407-.122.883v11.217c0 .799.036 1.233.11 1.303.162.154.641.245 1.437.273.163 0 .244.06.244.179zM108.239 12.033c0 .138-.181.2-.541.186h-.866c-.231 0-.368.039-.411.114-.043.076-.065.307-.065.694v11.928c0 .732-.008 1.16-.021 1.284-.015.124-.058.186-.13.186-.086 0-.187-.076-.302-.229l-2.765-3.881a508.282 508.282 0 01-5.85-8.48V25.45c.014.18.124.295.328.343.204.049.692.08 1.465.094.19 0 .284.056.284.166 0 .138-.187.207-.562.207-.13 0-.542-.02-1.234-.062a11.51 11.51 0 00-.671-.02c.014 0-.112.013-.379.04-.267.029-.675.042-1.223.042h-.216c-.332 0-.498-.062-.498-.187 0-.124.144-.186.433-.186.851-.014 1.345-.066 1.483-.156.136-.09.205-.384.205-.883v-10.24c0-1.148-.245-1.868-.736-2.16-.23-.138-.642-.207-1.233-.207-.376 0-.563-.073-.563-.219 0-.13.108-.196.325-.196.288 0 .656.014 1.103.042.447.028.686.041.715.041.043 0 .245-.007.606-.02.476 0 .937-.021 1.385-.063l7.467 10.68v-9.228c0-.428-.008-.688-.022-.778-.014-.09-.072-.159-.173-.207-.101-.049-.448-.073-1.039-.073-.52 0-.779-.062-.779-.186 0-.138.173-.208.519-.208H107.763c.317 0 .476.07.476.208zM118.701 22.754c0 1.22-.47 2.257-1.407 3.115-.937.858-2.065 1.286-3.382 1.286-.772 0-1.696-.234-2.769-.701-.287-.128-.501-.192-.644-.192-.172 0-.28.197-.323.589-.014.203-.107.304-.279.304-.143 0-.214-.085-.214-.255 0-.113.007-.198.021-.255.114-.865.172-1.665.172-2.403 0-.141-.015-.538-.043-1.19a2.05 2.05 0 01-.022-.34c0-.213.086-.32.258-.32.143 0 .243.172.301.516.372 2.548 1.581 3.822 3.628 3.822.873 0 1.549-.244 2.029-.733.48-.49.72-1.18.72-2.074 0-.793-.233-1.47-.698-2.03-.466-.56-1.264-1.116-2.394-1.67-1.36-.665-2.305-1.31-2.835-1.934-.529-.624-.794-1.396-.794-2.318 0-1.176.383-2.147 1.149-2.913.765-.765 1.735-1.148 2.909-1.148.487 0 1.16.163 2.019.49.3.113.522.17.665.17.157 0 .261-.029.312-.086.049-.056.096-.205.139-.446.029-.142.107-.213.236-.213.143 0 .215.085.215.255 0 .114-.008.199-.022.255-.043.34-.064.752-.064 1.234 0 .68.035 1.219.107 1.616l.022.34c.014.156-.051.234-.193.234-.158 0-.266-.163-.323-.49-.157-.835-.529-1.534-1.116-2.094-.587-.56-1.245-.84-1.976-.84-.715 0-1.284.227-1.706.68-.423.455-.634 1.071-.634 1.85 0 .908.308 1.638.923 2.19.344.313 1.088.752 2.233 1.319 1.346.667 2.312 1.343 2.899 2.03.587.688.881 1.471.881 2.35zM133.85 12.74c0 .111-.126.166-.378.166h-.713c-.35 0-.56.09-.63.269a1.89 1.89 0 00-.042.475v7.744c0 2.01-.381 3.472-1.143 4.388-.763.916-1.991 1.373-3.683 1.373-2.029 0-3.456-.565-4.281-1.696-.546-.758-.819-2.006-.819-3.743v-8.293c-.042-.248-.212-.4-.51-.454-.085-.014-.347-.021-.786-.021-.241-.028-.362-.097-.362-.207 0-.124.098-.186.294-.186H125.519c.238 0 .357.076.357.227 0 .096-.042.152-.126.165-.084.014-.364.028-.84.041-.196 0-.329.014-.398.042-.14.055-.218.152-.231.289-.014.055-.021.447-.021 1.177v7.393c0 1.817.294 3.056.881 3.716.588.662 1.462.992 2.623.992 2.127 0 3.33-1.19 3.61-3.567.042-.358.063-1.87.063-4.537v-4.928c0-.302-.146-.488-.436-.556-.097-.028-.38-.042-.85-.042-.276 0-.414-.075-.414-.227 0-.123.098-.185.294-.185h3.336c.322 0 .483.062.483.185zM145.753 24.637c0 .36-.022.956-.066 1.788h-.24c-.088 0-.299-.014-.634-.041a13.897 13.897 0 00-1.137-.042l-9.093-.062c-.248 0-.372-.063-.372-.188 0-.096.198-.159.592-.187.554-.027.887-.086.996-.177.11-.09.164-.35.164-.78V13.26c0-.513-.054-.81-.164-.894-.109-.083-.5-.125-1.171-.125-.278 0-.417-.076-.417-.229 0-.124.088-.187.263-.187h.197c.482.042 1.438.063 2.869.063.132 0 .387-.01.766-.031.38-.021.694-.032.942-.032h.241c.263 0 .395.07.395.208 0 .083-.041.135-.121.156-.081.021-.332.039-.755.052-.424.014-.676.08-.756.198-.08.118-.12.482-.12 1.092V25.8c.394.014.941.021 1.642.021 1.708 0 2.913-.083 3.614-.25.7-.166 1.175-.478 1.423-.935.248-.458.394-1.075.438-1.851.014-.18.098-.27.252-.27.182 0 .266.103.252.311V24.636zM155.225 21.8l-1.131-3.218-1.007-2.992c-.59 1.592-1.298 3.663-2.126 6.21h4.264zm5.68 5.171c0 .123-.105.184-.315.184-.139 0-.265-.007-.377-.021l-2.663-.087-2.662.087a2.227 2.227 0 01-.315.021c-.28 0-.419-.075-.419-.226 0-.166.189-.249.566-.249 1.23-.014 1.845-.14 1.845-.38 0-.015-.014-.071-.043-.17l-.171-.57-.108-.302c-.126-.447-.432-1.434-.921-2.96h-4.482c-.838 2.302-1.257 3.627-1.257 3.972 0 .202.084.324.252.367.042.015.391.043 1.048.086.405.015.608.087.608.216 0 .144-.182.216-.545.216-.643 0-1.391-.029-2.243-.086a9.577 9.577 0 00-.65-.022c-.224 0-.44.024-.65.072a1.352 1.352 0 01-.273.036c-.195 0-.293-.065-.293-.195s.22-.202.66-.216c.44-.014.758-.083.954-.206.196-.123.349-.358.462-.704 1.797-5.315 3.261-9.583 4.39-12.804.032-.17.098-.36.195-.573l.09-.394c.042-.159.098-.238.168-.238.042 0 .076.043.104.13.182.561.594 1.734 1.237 3.52a4286.75 4286.75 0 013.753 10.514c.112.326.255.533.43.622.174.09.534.14 1.08.156.363.013.545.081.545.204zM307.789 21.533c0-.032-.016.183-.048.646a39.46 39.46 0 00-.094 2.68c0 .095.016.29.047.586.032.295.047.65.047 1.064v.216c0 .206-.063.31-.188.31-.126 0-.236-.12-.331-.358-.221-.527-.441-.87-.661-1.03-1.134 1.006-2.497 1.508-4.087 1.508-2.315 0-4.232-.817-5.752-2.452-1.52-1.635-2.28-3.697-2.28-6.185 0-2.504.697-4.55 2.091-6.137 1.394-1.587 3.193-2.381 5.398-2.381.803 0 1.444.068 1.925.204.48.135 1.075.41 1.783.825.346.207.606.31.78.31.142 0 .275-.127.401-.382.205-.446.37-.67.497-.67.126 0 .189.064.189.191 0 .065-.017.168-.048.312-.173.766-.26 2.2-.26 4.306 0 .304-.023.479-.071.527a.252.252 0 01-.189.071c-.157 0-.26-.15-.307-.454-.205-1.276-.496-2.225-.874-2.847-.771-1.276-1.984-1.915-3.638-1.915-1.275 0-2.283.431-3.023 1.293-1.339 1.547-2.008 3.812-2.008 6.794 0 2.665.551 4.73 1.654 6.197.96 1.277 2.236 1.915 3.826 1.915.819 0 1.567-.204 2.245-.61a4.096 4.096 0 001.558-1.663c.41-.814.701-1.7.875-2.656.062-.383.165-.575.307-.575.157 0 .236.12.236.36zM321.308 19.673c0-2.616-.525-4.653-1.576-6.112-.659-.915-1.577-1.372-2.754-1.372-1.121 0-1.989.35-2.606 1.05-1.135 1.287-1.703 3.382-1.703 6.284 0 2.301.396 4.088 1.188 5.36.791 1.273 1.902 1.909 3.331 1.909 1.331 0 2.333-.6 3.006-1.802.743-1.329 1.114-3.101 1.114-5.317zm2.354-.108c0 2.124-.627 3.92-1.881 5.388-1.254 1.469-2.792 2.202-4.614 2.202-1.933 0-3.559-.744-4.876-2.234-1.317-1.49-1.976-3.325-1.976-5.506 0-2.223.634-4.044 1.902-5.462 1.269-1.418 2.891-2.128 4.866-2.128 1.864 0 3.426.742 4.687 2.224 1.261 1.483 1.892 3.321 1.892 5.516zM341.335 26.977c0 .119-.145.178-.434.178h-5.179c-.289 0-.434-.063-.434-.189 0-.14.2-.21.602-.21.707 0 1.136-.076 1.289-.23.069-.07.104-.538.104-1.404V14.266c0 .013-.084.258-.25.732a542.772 542.772 0 00-2.421 7.613l-.965 3.33c-.195.656-.333.984-.416.984-.098 0-.202-.168-.313-.502-.4-1.27-1.531-4.439-3.394-9.505l-.824-2.234v7.888c0 2.553.021 3.844.062 3.872.097.18.429.271.998.271.457 0 .685.07.685.209 0 .154-.145.23-.436.23-.18 0-.346-.013-.499-.04a3.718 3.718 0 00-.519-.043l-2.39.084c-.25 0-.374-.063-.374-.189 0-.14.394-.216 1.184-.23.333 0 .527-.056.582-.168.055-.111.083-.475.083-1.09V15.441c0-1.16-.014-1.789-.041-1.886a.57.57 0 00-.354-.398c-.18-.07-.568-.126-1.163-.168-.222-.014-.333-.076-.333-.188 0-.154.203-.23.61-.23h1.45c.827 0 1.408-.006 1.745-.016.068.181.469 1.28 1.205 3.292.316.838 1.201 3.281 2.656 7.33.262-.909.531-1.803.806-2.683l2.222-6.915c.137-.398.259-.727.366-.988l3.082-.02c.452 0 .712.02.781.063a.208.208 0 01.103.188c0 .14-.118.21-.354.21-.388 0-.651.014-.789.042-.333.056-.561.168-.686.336-.07.098-.104.916-.104 2.455v9.759c0 .56.055.889.166.986.18.126.631.19 1.351.19h.125c.276 0 .415.059.415.177zM350.646 16.078c0-2.11-.893-3.166-2.679-3.166-.595 0-.986.098-1.17.295-.085.085-.127.303-.127.655v5.615c.113.015.241.022.383.022.935 0 1.729-.204 2.381-.613.808-.506 1.212-1.442 1.212-2.808zm2.233-.02c0 1.357-.589 2.413-1.765 3.168-.737.475-1.673.713-2.807.713-.482 0-1.028-.049-1.637-.147v5.957c0 .323.014.525.042.609.071.196.227.315.468.356a8.79 8.79 0 001.191.084c.156 0 .234.05.234.147 0 .14-.1.21-.298.21h-4.891c-.425 0-.637-.07-.637-.21 0-.098.148-.147.446-.147.666 0 1.049-.063 1.148-.19.114-.055.178-.195.192-.42V13.795c0-.434-.121-.7-.362-.798-.142-.056-.39-.084-.744-.084h-.362c-.212 0-.318-.056-.318-.17 0-.124.198-.187.595-.187h4.678c1.616 0 2.8.28 3.551.839.851.63 1.276 1.518 1.276 2.664zM360.545 21.8l-1.131-3.218-1.007-2.993c-.59 1.593-1.298 3.664-2.125 6.211h4.263zm5.68 5.17c0 .124-.105.185-.314.185-.14 0-.266-.008-.378-.021l-2.662-.087-2.663.087a2.253 2.253 0 01-.314.021c-.28 0-.42-.075-.42-.226 0-.166.189-.25.566-.25 1.23-.013 1.845-.14 1.845-.38 0-.014-.014-.07-.042-.169l-.172-.571-.108-.301c-.125-.447-.432-1.434-.921-2.96h-4.481c-.839 2.302-1.257 3.627-1.257 3.972 0 .202.084.324.251.367.042.014.392.043 1.049.086.405.015.608.087.608.216 0 .144-.182.216-.545.216-.644 0-1.391-.029-2.244-.086a9.535 9.535 0 00-.65-.022c-.224 0-.44.024-.65.072a1.35 1.35 0 01-.272.036c-.196 0-.294-.065-.294-.195s.221-.202.661-.217c.44-.014.758-.082.954-.205.195-.123.349-.358.461-.704 1.798-5.315 3.261-9.583 4.39-12.804.033-.17.098-.36.195-.573l.09-.395c.042-.158.098-.237.168-.237.042 0 .077.043.105.13.181.561.594 1.734 1.236 3.519a3930.25 3930.25 0 013.753 10.515c.112.326.255.533.43.622.174.09.534.14 1.08.155.363.014.545.082.545.205zM379.932 12.763c0 .138-.18.2-.541.186h-.866c-.23 0-.367.039-.411.114-.043.076-.065.307-.065.694v11.928c0 .732-.007 1.16-.021 1.284-.015.124-.058.186-.129.186-.087 0-.187-.077-.303-.23l-2.765-3.88a511.443 511.443 0 01-5.85-8.48V26.18c.014.18.124.294.328.343.204.049.692.08 1.465.094.19 0 .285.055.285.166 0 .138-.188.207-.563.207-.13 0-.541-.02-1.234-.062-.231-.014-.454-.02-.671-.02.015 0-.112.013-.378.04-.268.028-.675.042-1.223.042h-.216c-.333 0-.499-.062-.499-.187 0-.124.145-.187.433-.187.851-.013 1.346-.066 1.483-.155.137-.09.206-.385.206-.883v-10.24c0-1.148-.246-1.868-.736-2.16-.231-.138-.642-.207-1.234-.207-.375 0-.563-.072-.563-.219 0-.13.108-.196.325-.196.289 0 .656.014 1.104.042.447.027.685.041.714.041.043 0 .245-.007.606-.02.476 0 .938-.021 1.385-.063l7.467 10.68v-9.228c0-.428-.008-.688-.021-.778-.015-.09-.073-.158-.174-.207-.101-.049-.447-.073-1.039-.073-.519 0-.779-.062-.779-.186 0-.139.174-.208.52-.208h3.484c.317 0 .476.07.476.208zM394 12.765c0 .105-.119.158-.357.158-.771.015-1.247.148-1.429.402-.168.155-.771 1.353-1.808 3.596-.462.99-.897 1.862-1.303 2.616-.28.518-.441.871-.483 1.06-.042.19-.063.598-.063 1.227v3.968c0 .462.059.734.178.818.119.084.536.147 1.251.19.378.026.567.092.567.197 0 .105-.098.158-.294.158h-.252l-2.942-.063c-.828 0-1.507.014-2.039.042-.085.014-.183.02-.294.02-.197 0-.295-.065-.295-.197s.161-.206.484-.22c.77-.028 1.226-.098 1.366-.21.14-.11.21-.444.21-1v-4.4a97.506 97.506 0 00-1.219-2.448l-2.102-4.144c-.21-.405-.462-.859-.756-1.36-.155-.14-.487-.21-.999-.21-.511 0-.767-.077-.767-.23 0-.112.113-.168.336-.168.295 0 .883.014 1.766.042.504.014.868.021 1.093.021l2.438-.031c.098-.021.21-.032.336-.032.252 0 .378.07.378.21 0 .127-.238.19-.714.19-.869 0-1.303.154-1.303.463 0 .239.44 1.2 1.322 2.885l1.909 3.598c.349-.623.747-1.392 1.193-2.307l1.241-2.49c.468-.899.703-1.489.703-1.77 0-.182-.119-.287-.357-.315-.491-.07-.82-.099-.988-.085-.308.015-.462-.056-.462-.21 0-.113.133-.169.399-.169h1.913c1.429-.042 2.143.024 2.143.198zM233.215 14.318c0 .21-.096.314-.289.314-.193 0-.329-.209-.409-.628l-.097-.868c-.112-.58-.297-1.07-.554-1.471-.337-.531-.891-.869-1.662-1.014-.498-.096-.9-.136-1.205-.12-.755.021-1.212.037-1.373.048v14.569c0 .58.153.942.458 1.087.16.08.61.13 1.349.145.193.015.289.084.289.205 0 .137-.129.205-.385.205-.129 0-.241-.008-.338-.024a70.65 70.65 0 00-2.048-.048c-.53 0-1.027.012-1.493.036-.466.024-1.06.036-1.783.036-.37 0-.554-.064-.554-.193 0-.145.345-.226 1.036-.242.498 0 .819-.104.964-.314.08-.129.12-.459.12-.99V10.579c-1.59.016-2.577.096-2.963.241-1.012.37-1.606 1.36-1.783 2.967-.048.483-.161.724-.337.724-.193 0-.289-.169-.289-.507 0-.176.008-.353.024-.53l.048-.555c.048-.74.12-1.713.217-2.919h1.084l4.914.072a71.68 71.68 0 002.699 0l3.999-.072c.032.9.136 2.236.313 4.004 0 .049.008.11.024.181a.962.962 0 01.024.133zM242.253 15.381c0-2.067-.861-3.101-2.581-3.101-.457 0-.769.065-.936.196-.167.13-.25.36-.25.693v5.508c1.332.014 2.293-.239 2.883-.76.589-.52.884-1.365.884-2.536zm4.308 10.863c0 .607-.486.91-1.457.91-1.082 0-1.929-.469-2.539-1.409-.263-.404-.434-.795-.51-1.17-.076-.377-.19-1.33-.343-2.863-.083-.925-.368-1.579-.853-1.962-.486-.383-1.277-.589-2.373-.618v6.83c0 .29.222.47.666.542.125.015.444.03.957.043.18 0 .271.058.271.174 0 .13-.118.195-.354.195h-4.89c-.306 0-.458-.065-.458-.195 0-.101.201-.159.603-.174.652-.014 1.006-.1 1.062-.26.055-.072.083-.354.083-.845v-11.97c0-.577-.059-.924-.177-1.04-.118-.116-.476-.18-1.072-.195-.347 0-.52-.065-.52-.195 0-.145.111-.217.333-.217.042 0 .104.007.187.022l2.768.065c.278 0 .666-.01 1.166-.029.554-.039.943-.058 1.165-.058 1.29 0 2.313.3 3.07.9.756.6 1.134 1.413 1.134 2.439 0 1.012-.389 1.847-1.166 2.504-.777.658-1.831 1.045-3.163 1.16-.125.015-.194.037-.208.066 0 .058.069.087.208.087 1.457.26 2.459.793 3.007 1.598.548.804.913 2.258 1.093 4.359.111 1.189.499 1.783 1.165 1.783.209 0 .312-.043.312-.13 0-.014-.007-.029-.02-.044a1.019 1.019 0 01-.104-.39c0-.303.152-.455.457-.455.333 0 .5.18.5.542zM260.629 12.374c0 .111-.126.167-.377.167h-.714c-.35 0-.56.09-.629.268a1.842 1.842 0 00-.042.475v7.744c0 2.01-.382 3.473-1.144 4.388-.763.916-1.991 1.373-3.683 1.373-2.029 0-3.456-.565-4.281-1.696-.546-.758-.818-2.005-.818-3.742v-8.293c-.043-.248-.213-.4-.511-.455-.085-.014-.347-.02-.786-.02-.241-.028-.361-.097-.361-.208 0-.124.098-.185.294-.185H252.298c.238 0 .357.075.357.226 0 .096-.042.152-.126.166-.084.013-.364.027-.839.04-.196 0-.329.015-.399.042-.14.055-.217.152-.231.29-.014.054-.021.446-.021 1.176v7.393c0 1.817.294 3.056.881 3.717.588.66 1.462.991 2.624.991 2.126 0 3.329-1.189 3.609-3.567.042-.358.063-1.87.063-4.536V13.2c0-.303-.145-.488-.435-.557-.097-.028-.38-.041-.85-.041-.277 0-.415-.076-.415-.228 0-.123.098-.184.294-.184h3.337c.321 0 .482.061.482.184zM271.451 22.753c0 1.22-.47 2.258-1.407 3.116-.937.857-2.065 1.286-3.382 1.286-.772 0-1.696-.234-2.769-.702-.287-.127-.501-.191-.644-.191-.172 0-.28.196-.323.589-.014.202-.107.304-.279.304-.143 0-.214-.085-.214-.255 0-.114.007-.199.021-.255.114-.865.172-1.666.172-2.403 0-.142-.015-.539-.043-1.19a2.048 2.048 0 01-.022-.34c0-.214.086-.32.258-.32.143 0 .243.172.301.515.372 2.548 1.581 3.823 3.628 3.823.873 0 1.549-.245 2.029-.734s.72-1.18.72-2.073c0-.794-.233-1.47-.698-2.03-.466-.56-1.264-1.117-2.394-1.67-1.36-.666-2.305-1.31-2.835-1.935-.529-.623-.794-1.396-.794-2.317 0-1.176.383-2.148 1.149-2.913.765-.765 1.735-1.149 2.909-1.149.487 0 1.16.164 2.019.49.3.113.522.17.665.17.157 0 .261-.028.312-.085.049-.057.096-.206.139-.447.028-.141.107-.212.236-.212.143 0 .215.085.215.255 0 .113-.008.198-.022.255-.043.34-.064.751-.064 1.233 0 .68.035 1.22.107 1.616l.022.34c.014.157-.051.234-.193.234-.158 0-.266-.163-.323-.489-.157-.836-.529-1.534-1.116-2.094-.587-.56-1.245-.84-1.976-.84-.715 0-1.284.227-1.706.68-.423.454-.634 1.07-.634 1.85 0 .907.308 1.638.923 2.19.344.312 1.088.752 2.233 1.319 1.346.666 2.312 1.343 2.899 2.03.587.688.881 1.47.881 2.35zM284.798 15.944c0 .182-.083.273-.25.273-.166 0-.285-.181-.354-.545l-.083-.755c-.097-.504-.257-.93-.479-1.28-.292-.462-.771-.755-1.438-.88-.431-.085-.778-.12-1.042-.106a47.7 47.7 0 00-1.188.042V25.36c0 .505.132.82.397.945.138.07.527.113 1.166.127.167.013.25.073.25.178 0 .12-.111.178-.333.178-.112 0-.209-.007-.292-.02a62.62 62.62 0 00-1.771-.043c-.458 0-.889.01-1.292.032-.403.02-.917.032-1.542.032-.319 0-.479-.057-.479-.169 0-.126.299-.196.896-.21.431 0 .709-.09.834-.273.069-.112.104-.4.104-.861V12.693c-1.375.014-2.23.084-2.563.21-.875.322-1.389 1.182-1.542 2.58-.042.42-.139.63-.291.63-.167 0-.251-.147-.251-.441 0-.154.007-.308.021-.462l.042-.482c.042-.643.104-1.49.188-2.538h.937l4.25.062a62.35 62.35 0 002.334 0l3.459-.063c.027.784.118 1.945.271 3.483a.69.69 0 00.021.157c.013.063.02.101.02.115zM179.946 23.128c0-2.03-.811-3.286-2.433-3.77-.478-.144-1.36-.217-2.648-.217v7.2c0 .467.047.733.143.797.159.113.604.169 1.336.169 1.097 0 1.971-.354 2.624-1.063.652-.709.978-1.747.978-3.116zm-.692-8.07c0-1.546-.35-2.576-1.05-3.092-.366-.273-1.057-.41-2.075-.41-.271 0-.692.024-1.264.072v7.006h.214l1.312-.048c.907-.032 1.61-.358 2.111-.979.501-.62.752-1.47.752-2.548zm3.197 8.335c0 1.643-.74 2.86-2.219 3.648-.716.387-1.741.628-3.077.725-.366.016-1.447.024-3.245.024H171c-.271 0-.405-.068-.405-.205 0-.137.246-.206.739-.206.573 0 .91-.06 1.014-.18.103-.122.155-.488.155-1.1v-13.07c0-.708-.032-1.119-.095-1.232-.112-.193-.518-.298-1.217-.314-.429 0-.644-.084-.644-.254 0-.153.198-.229.596-.229h.287c.174.048.333.072.477.072h4.651c1.718.017 2.998.307 3.841.87.986.66 1.479 1.619 1.479 2.875 0 1.095-.405 1.993-1.217 2.694-.811.7-1.948 1.14-3.411 1.316v.145c1.447.097 2.577.403 3.388.918 1.208.773 1.813 1.941 1.813 3.503zM192.643 22.436l-1.131-3.219-1.008-2.992c-.589 1.592-1.298 3.663-2.125 6.21h4.264zm5.679 5.17c0 .123-.104.184-.314.184-.14 0-.266-.007-.377-.021l-2.663-.087-2.663.087a2.213 2.213 0 01-.314.021c-.28 0-.42-.075-.42-.226 0-.166.189-.249.567-.249 1.229-.014 1.845-.14 1.845-.38 0-.015-.015-.071-.043-.17l-.172-.57-.107-.302c-.126-.447-.433-1.434-.922-2.96h-4.481c-.839 2.302-1.257 3.627-1.257 3.972 0 .202.084.324.251.367.042.015.392.043 1.049.086.405.015.608.087.608.216 0 .144-.182.216-.545.216-.643 0-1.391-.029-2.244-.086a9.533 9.533 0 00-.65-.022c-.223 0-.44.024-.65.072a1.335 1.335 0 01-.272.036c-.196 0-.294-.065-.294-.195s.221-.202.661-.216c.44-.014.758-.083.954-.206.195-.123.349-.357.461-.704 1.798-5.315 3.261-9.583 4.39-12.804.033-.17.098-.36.196-.573l.089-.394c.042-.159.098-.238.168-.238.042 0 .077.043.105.13.181.561.594 1.734 1.237 3.52a4286.75 4286.75 0 013.753 10.514c.111.326.254.533.429.622.175.09.535.14 1.08.156.364.013.545.081.545.204zM210.225 12.67c0 .106-.119.159-.357.159-.771.014-1.247.147-1.429.401-.168.155-.771 1.354-1.808 3.596-.462.99-.897 1.863-1.303 2.616-.28.518-.441.871-.483 1.06-.042.19-.063.599-.063 1.228v3.967c0 .462.059.735.178.819.119.084.536.147 1.251.188.378.027.568.093.568.198 0 .106-.099.158-.295.158h-.252l-2.942-.063c-.827 0-1.507.015-2.039.042-.084.014-.182.021-.294.021-.197 0-.295-.066-.295-.198s.161-.205.484-.22c.77-.028 1.226-.098 1.366-.209.14-.111.21-.445.21-1v-4.4a97.32 97.32 0 00-1.219-2.45l-2.102-4.143c-.21-.405-.462-.858-.756-1.36-.155-.14-.487-.21-.999-.21-.511 0-.767-.076-.767-.23 0-.112.113-.168.336-.168.295 0 .883.014 1.766.042.504.014.869.021 1.093.021l2.438-.031c.098-.021.21-.032.336-.032.252 0 .379.07.379.211 0 .126-.239.19-.715.19-.869 0-1.303.154-1.303.462 0 .24.44 1.2 1.322 2.885l1.909 3.599c.349-.624.747-1.393 1.194-2.308l1.24-2.49c.468-.899.703-1.488.703-1.77 0-.182-.119-.287-.357-.315-.491-.07-.82-.098-.988-.084-.308.014-.462-.056-.462-.211 0-.112.133-.169.399-.169h1.913c1.429-.041 2.143.025 2.143.198z" fill="#484848"/></svg>